<svg width="10" height="10" viewBox="0 0 10 10" fill="#ffffff" xmlns="http://www.w3.org/2000/svg">
<path d="M5.75 1.25C5.75 0.835786 5.41421 0.5 5 0.5C4.58579 0.5 4.25 0.835786 4.25 1.25H5.75ZM4.25 8.75C4.25 9.16421 4.58579 9.5 5 9.5C5.41421 9.5 5.75 9.16421 5.75 8.75H4.25ZM1.25 4.25C0.835786 4.25 0.5 4.58579 0.5 5C0.5 5.41421 0.835786 5.75 1.25 5.75V4.25ZM8.75 5.75C9.16421 5.75 9.5 5.41421 9.5 5C9.5 4.58579 9.16421 4.25 8.75 4.25V5.75ZM4.25 1.25V8.75H5.75V1.25H4.25ZM1.25 5.75H8.75V4.25H1.25V5.75Z" fill="#74838F"/>
</svg>
